<svg width="640" height="512" viewBox="0 0 640 512" fill="none" xmlns="http://www.w3.org/2000/svg">
<path d="M278.902 511.5L217.902 493.8C211.502 492 207.902 485.3 209.702 478.9L346.202 8.69993C348.002 2.29993 354.702 -1.30006 361.102 0.499935L422.102 18.1999C428.502 19.9999 432.102 26.6999 430.302 33.0999L293.802 503.3C291.902 509.7 285.302 513.4 278.902 511.5V511.5ZM164.902 399.3L208.402 352.9C213.002 348 212.702 340.2 207.602 335.7L117.002 256L207.602 176.3C212.702 171.8 213.102 164 208.402 159.1L164.902 112.7C160.402 107.9 152.802 107.6 147.902 112.2L3.80156 247.2C-1.29844 251.9 -1.29844 260 3.80156 264.7L147.902 399.8C152.802 404.4 160.402 404.2 164.902 399.3V399.3ZM492.102 399.9L636.202 264.8C641.302 260.1 641.302 252 636.202 247.3L492.102 112.1C487.302 107.6 479.702 107.8 475.102 112.6L431.602 159C427.002 163.9 427.302 171.7 432.402 176.2L523.002 256L432.402 335.7C427.302 340.2 426.902 348 431.602 352.9L475.102 399.3C479.602 404.2 487.202 404.4 492.102 399.9V399.9Z" fill="#09589C"/>
</svg>
